<?xml version="1.0" encoding="UTF-8"?>
<svg version="1.1" xmlns="http://www.w3.org/2000/svg" width="512" height="512">
<path d="M0 0 C1.65112832 -0.01159431 3.30221705 -0.03216171 4.953125 -0.06152344 C17.60274089 -0.28528875 26.37130644 0.46675102 35.99194336 9.43579102 C42.35789194 16.05192971 45.01748936 22.19224564 45.08178711 31.51782227 C45.08738647 32.20721893 45.09298584 32.8966156 45.09875488 33.60690308 C45.11069324 35.85737776 45.10435274 38.10719132 45.09350586 40.35766602 C45.09077164 41.52206711 45.09077164 41.52206711 45.08798218 42.70999146 C44.88441017 94.4736444 32.84567654 146.48876809 10.78100586 193.29516602 C10.3573877 194.20137695 9.93376953 195.10758789 9.49731445 196.04125977 C-2.61261652 221.72761204 -17.82094187 245.65225179 -36.21899414 267.29516602 C-37.10509896 268.36621165 -37.99047566 269.43785995 -38.87524414 270.51000977 C-39.84313866 271.66827726 -40.8119146 272.82580867 -41.78149414 273.98266602 C-42.27061279 274.57490967 -42.75973145 275.16715332 -43.26367188 275.77734375 C-46.11897165 279.1451448 -49.0518842 282.0684789 -52.47290039 284.86547852 C-59.98123767 291.16559682 -64.8779697 295.96631618 -65.77807617 306.06323242 C-65.95270912 310.37327991 -66.01442925 314.68139451 -66.07006836 318.99438477 C-66.77716825 334.66650035 -71.55620104 350.73171283 -77.21899414 365.29516602 C-77.4790625 365.96805664 -77.73913086 366.64094727 -78.00708008 367.33422852 C-84.17257917 382.97059831 -92.74844658 397.17431943 -103.21899414 410.29516602 C-103.8905957 411.17043945 -104.56219727 412.04571289 -105.25415039 412.94750977 C-119.96524334 431.67321874 -137.97865628 446.00530569 -158.21899414 458.29516602 C-159.30438477 458.96290039 -160.38977539 459.63063477 -161.50805664 460.31860352 C-168.69320844 464.35669674 -175.02226701 465.56801789 -183.21899414 464.29516602 C-189.4505456 462.3028405 -193.38927042 457.51896495 -196.53149414 451.98266602 C-198.56079614 444.04994002 -196.64623669 437.75958165 -193.53149414 430.42016602 C-185.74563138 410.99166638 -182.00281421 392.238416 -182.21899414 371.29516602 C-183.34204956 371.66484497 -183.34204956 371.66484497 -184.48779297 372.04199219 C-193.04708829 374.85052121 -201.62317846 377.6006045 -210.21899414 380.29516602 C-211.66290527 380.74907715 -211.66290527 380.74907715 -213.13598633 381.2121582 C-226.14982324 385.22438779 -239.9699316 388.70829065 -252.90649414 382.67016602 C-257.45805214 380.18031229 -260.66208567 377.01351543 -264.21899414 373.29516602 C-264.48526611 373.79330811 -264.75153809 374.2914502 -265.02587891 374.8046875 C-274.74236738 392.88902338 -274.74236738 392.88902338 -281.21899414 400.29516602 C-281.79649414 401.01446289 -282.37399414 401.73375977 -282.96899414 402.47485352 C-297.84880222 420.39262241 -321.91555944 431.85051692 -344.82446289 434.99047852 C-349.49384466 435.40959449 -354.16298439 435.7257639 -358.84399414 435.98266602 C-359.71515869 436.03140869 -360.58632324 436.08015137 -361.48388672 436.13037109 C-370.38573573 436.52274141 -378.88684651 436.86759822 -386.21899414 431.29516602 C-394.30683096 420.44043765 -391.58828848 403.29928562 -389.85522461 390.63745117 C-385.3459002 363.44042502 -372.15548728 338.13434926 -349.53149414 321.67016602 C-342.69530407 317.11639921 -335.41991208 313.23512236 -328.21899414 309.29516602 C-328.66629883 308.9174707 -329.11360352 308.53977539 -329.57446289 308.15063477 C-336.21663204 302.10328673 -340.83152983 294.00937396 -341.34399414 284.88110352 C-340.40161211 265.38557529 -332.57650731 245.57667854 -326.21899414 227.29516602 C-347.39939247 226.11116859 -369.07889962 231.43377536 -388.46899414 239.67016602 C-394.85301896 242.31567248 -399.6893656 243.78029013 -406.36352539 241.59204102 C-412.53606591 238.88940732 -416.58005171 234.52853003 -419.21899414 228.29516602 C-421.83951923 214.80590573 -413.35597865 203.22575838 -406.28149414 192.48266602 C-377.31911531 149.81462935 -334.56667359 122.55794994 -284.21899414 112.29516602 C-277.91605831 111.09657494 -271.64883758 109.98694412 -265.23461914 110.66625977 C-259.29545088 111.12622347 -254.65601746 111.0869979 -249.6940918 107.4387207 C-244.20742458 102.52544047 -239.28942894 97.08954341 -234.36743164 91.61987305 C-230.38574802 87.31151039 -225.88009036 83.843478 -221.21899414 80.29516602 C-220.19547852 79.46629883 -219.17196289 78.63743164 -218.11743164 77.78344727 C-157.36114591 28.60824567 -78.12843452 0.38126614 0 0 Z " fill="#E3E2FE" transform="translate(443.218994140625,23.704833984375)"/>
<path d="M0 0 C12.47991466 11.31807954 22.60479689 25.41413562 26.30249023 42.09545898 C26.50487305 42.84827148 26.70725586 43.60108398 26.91577148 44.37670898 C31.98288385 66.16184512 27.75738545 88.19117307 16.30249023 107.09545898 C13.87244794 110.68684679 11.23620869 113.90639837 8.30249023 117.09545898 C7.19647461 118.33875977 7.19647461 118.33875977 6.06811523 119.60717773 C-7.48967444 134.0732507 -26.84875093 143.67783397 -46.81079102 144.52905273 C-48.87706207 144.5527255 -50.94370605 144.55358496 -53.01000977 144.53295898 C-54.1030542 144.52393555 -55.19609863 144.51491211 -56.32226562 144.50561523 C-78.50648414 144.03252712 -99.15991788 133.65200611 -114.50219727 117.70483398 C-130.4476487 98.75187747 -136.72913905 76.57931279 -134.69750977 52.09545898 C-132.26784331 31.51500299 -121.16495787 12.89562658 -105.64672852 -0.58813477 C-74.93766992 -24.7079649 -30.12106704 -26.22056466 0 0 Z " fill="#474646" transform="translate(377.697509765625,124.904541015625)"/>
<path d="M0 0 C3.79247167 1.57272655 6.1918788 3.94538892 9.074646 6.83413696 C9.57217353 7.32995565 10.06970107 7.82577433 10.58230519 8.33661783 C12.24683353 9.99785409 13.90411658 11.66613352 15.56152344 13.33447266 C16.7537869 14.52730029 17.94649099 15.71968764 19.13960266 16.91166687 C22.3772274 20.14871734 25.60864481 23.39190117 28.83899593 26.63620806 C32.21601437 30.02572142 35.59869012 33.40957912 38.98077393 36.79403687 C45.38432149 43.20380283 51.78275334 49.6186504 58.17937016 56.03533208 C65.46195784 63.34026753 72.75021929 70.63953083 80.03896666 77.93831944 C95.03230674 92.95256969 110.01849505 107.97394102 125 123 C124.67 123.99 124.34 124.98 124 126 C111.83549276 130.61367529 97.19311475 133.99286958 84.484375 129.85546875 C78.53107686 127.07677417 74.49883198 123.70302494 70 119 C69.73372803 119.49814209 69.46745605 119.99628418 69.19311523 120.50952148 C59.47662676 138.59385737 59.47662676 138.59385737 53 146 C52.13375 147.07894531 52.13375 147.07894531 51.25 148.1796875 C36.37019192 166.0974564 12.3034347 177.55535091 -10.60546875 180.6953125 C-15.27485052 181.11442847 -19.94399025 181.43059789 -24.625 181.6875 C-25.49616455 181.73624268 -26.3673291 181.78498535 -27.26489258 181.83520508 C-36.16674159 182.22757539 -44.66785236 182.5724322 -52 177 C-60.08783682 166.14527164 -57.36929434 149.00411961 -55.63623047 136.34228516 C-51.12690606 109.14525901 -37.93649314 83.83918324 -15.3125 67.375 C-8.47630993 62.8212332 -1.20091794 58.93995634 6 55 C5.55269531 54.62230469 5.10539062 54.24460937 4.64453125 53.85546875 C-2.00393397 47.80238847 -6.55126281 39.75546148 -7.140625 30.63671875 C-6.73784995 23.08468662 -5.41348058 5.41348058 0 0 Z " fill="#F8B837" transform="translate(109,278)"/>
<path d="M0 0 C1.65112832 -0.01159431 3.30221705 -0.03216171 4.953125 -0.06152344 C17.60274089 -0.28528875 26.37130644 0.46675102 35.99194336 9.43579102 C42.35789194 16.05192971 45.01748936 22.19224564 45.08178711 31.51782227 C45.08738647 32.20721893 45.09298584 32.8966156 45.09875488 33.60690308 C45.11069324 35.85737776 45.10435274 38.10719132 45.09350586 40.35766602 C45.09168304 41.13393341 45.08986023 41.91020081 45.08798218 42.70999146 C44.96352001 74.35784299 43.46703795 115.70620067 28.78100586 144.29516602 C22.11683477 138.8131608 16.06877613 132.73846957 9.97070312 126.64599609 C8.7876091 125.46753742 7.60432032 124.28927425 6.42085266 123.1111908 C3.2246341 119.92801619 0.03168901 116.74157859 -3.1602428 113.554106 C-5.15470684 111.56258144 -7.14975278 109.5716416 -9.14497566 107.5808773 C-15.38895175 101.35054565 -21.63094514 95.11823778 -27.87003845 88.88301641 C-35.07157071 81.68597863 -42.27962102 74.49555318 -49.49333233 67.31072313 C-55.07407866 61.75154795 -60.64909101 56.18666543 -66.21973187 50.61736411 C-69.54604151 47.29210438 -72.87475633 43.96933884 -76.20944023 40.65247536 C-79.33916783 37.53915274 -82.46174872 34.41884013 -85.57887459 31.29290199 C-86.72600594 30.14499659 -87.8757256 28.9996713 -89.02815247 27.85708237 C-90.59590834 26.30193328 -92.15422733 24.73791226 -93.71043396 23.17121887 C-94.58626349 22.2968559 -95.46209303 21.42249292 -96.36446285 20.5216341 C-98.21899414 18.29516602 -98.21899414 18.29516602 -98.21899414 15.29516602 C-66.2586675 5.91877727 -33.34763996 0.16273622 0 0 Z " fill="#FB665A" transform="translate(443.218994140625,23.704833984375)"/>
<path d="M0 0 C1.04864678 27.45901017 -5.42331625 54.19612981 -17 79 C-17.28987793 79.63728027 -17.57975586 80.27456055 -17.87841797 80.93115234 C-33.49982156 115.11950149 -61.27184878 141.73478074 -93 161 C-94.08539063 161.66773438 -95.17078125 162.33546875 -96.2890625 163.0234375 C-103.4742143 167.06153073 -109.80327287 168.27285187 -118 167 C-124.23155146 165.00767449 -128.17027628 160.22379894 -131.3125 154.6875 C-133.34225305 146.75301081 -131.42467152 140.46642621 -128.3125 133.125 C-120.29204475 112.92782621 -117.65999735 93.54275512 -116 72 C-115.34330322 71.73485596 -114.68660645 71.46971191 -114.01000977 71.1965332 C-76.67429601 56.019703 -42.36643001 36.6516178 -12 10 C-11.18660156 9.29746094 -10.37320313 8.59492188 -9.53515625 7.87109375 C-5.85083482 4.69084725 -5.85083482 4.69084725 -2.3515625 1.3125 C-1 0 -1 0 0 0 Z " fill="#FB6458" transform="translate(378,321)"/>
<path d="M0 0 C-2.88377832 3.37950636 -5.77200219 6.75325468 -8.71875 10.078125 C-35.91415843 40.95477403 -57.5806971 77.48768465 -72 116 C-72.94129761 116.05945801 -72.94129761 116.05945801 -73.90161133 116.12011719 C-96.54018342 117.61299688 -117.65844947 121.2778669 -138.5625 130.375 C-143.87715656 132.54461966 -148.64378538 133.07835055 -154.1640625 131.3046875 C-160.31746725 128.56215879 -164.35824932 124.2399973 -167 118 C-169.62052509 104.51073972 -161.13698451 92.93059237 -154.0625 82.1875 C-124.56262472 38.72761132 -81.03363117 11.67811343 -29.76611328 1.55908203 C-19.87400602 -0.24842992 -10.01116152 -0.22056415 0 0 Z " fill="#FB6458" transform="translate(191,134)"/>
<path d="M0 0 C4.92924119 4.19144509 9.83170501 8.39742021 14.5625 12.8125 C15.21541016 13.37775391 15.86832031 13.94300781 16.54101562 14.52539062 C20.93417148 18.69445351 20.93417148 18.69445351 21.10205078 22.02392578 C20.61200372 24.46203392 19.86618858 26.66844284 19 29 C18.55346069 30.3753894 18.55346069 30.3753894 18.09790039 31.77856445 C3.68228424 75.33871847 -19.85546311 115.50989254 -50 150 C-51.10408203 151.27230469 -51.10408203 151.27230469 -52.23046875 152.5703125 C-60.16097056 161.55532548 -68.59111804 170.33904984 -77.75 178.0859375 C-79.58858016 179.65000743 -81.39123742 181.23971899 -83.1875 182.8515625 C-92.6479238 191.28524375 -102.59683358 198.77181048 -113 206 C-113.62310059 206.43908691 -114.24620117 206.87817383 -114.88818359 207.33056641 C-137.69629178 223.36820187 -162.98018828 236.08460475 -189 246 C-190.66766747 246.68506879 -192.33442495 247.3723596 -194 248.0625 C-198.26526832 249.76716879 -202.58783666 251.27747932 -206.9375 252.75 C-207.58912109 252.97308838 -208.24074219 253.19617676 -208.91210938 253.42602539 C-211.74175792 254.36788354 -213.99516012 255 -217 255 C-218.40234375 253.671875 -218.40234375 253.671875 -219.9375 251.75 C-223.24606643 247.78542471 -226.7738725 244.13183546 -230.4375 240.5 C-231.25432251 239.68934082 -231.25432251 239.68934082 -232.08764648 238.86230469 C-233.38975721 237.57283984 -234.69458678 236.2861214 -236 235 C-233.17659544 233.11773029 -231.02026557 232.23046564 -227.828125 231.1875 C-226.78301758 230.83961426 -225.73791016 230.49172852 -224.66113281 230.13330078 C-222.97262207 229.57231689 -222.97262207 229.57231689 -221.25 229 C-208.5047537 224.66633405 -196.19808319 219.68758131 -184 214 C-183.08798828 213.57493164 -182.17597656 213.14986328 -181.23632812 212.71191406 C-155.54987246 200.59789718 -131.65612403 185.38067502 -110 167 C-109.00871094 166.19304687 -108.01742187 165.38609375 -106.99609375 164.5546875 C-99.1532849 158.10187805 -91.88315561 151.09658264 -84.6875 143.9375 C-83.76864014 143.02782471 -82.84978027 142.11814941 -81.90307617 141.1809082 C-75.84258352 135.09305441 -70.34916408 128.71575334 -65 122 C-64.02332665 120.82625851 -63.04341978 119.65519067 -62.05859375 118.48828125 C-34.00161203 84.75047083 -11.28263733 42.50809848 0 0 Z " fill="#D0D0F6" transform="translate(451,148)"/>
<path d="M0 0 C11.34787296 7.42604807 19.14758646 16.68468113 23.0859375 29.88671875 C25.86230399 43.94819845 23.47178159 56.08719377 15.75 68.25 C8.12644186 78.87267366 -3.20545752 86.88048573 -16.25 89.25 C-30.98871075 90.1516623 -43.24451706 87.54015286 -54.95703125 78.05859375 C-65.29037253 68.40691216 -71.11214495 55.51759823 -71.6875 41.375 C-71.26262284 27.11390569 -64.8088502 14.88904485 -54.59375 5.21875 C-39.37951912 -7.56120394 -17.32419849 -9.87690584 0 0 Z " fill="#BDBDFA" transform="translate(348.25,145.75)"/>
<path d="M0 0 C3.79247167 1.57272655 6.1918788 3.94538892 9.074646 6.83413696 C9.57217353 7.32995565 10.06970107 7.82577433 10.58230519 8.33661783 C12.24683353 9.99785409 13.90411658 11.66613352 15.56152344 13.33447266 C16.7537869 14.52730029 17.94649099 15.71968764 19.13960266 16.91166687 C22.3772274 20.14871734 25.60864481 23.39190117 28.83899593 26.63620806 C32.21601437 30.02572142 35.59869012 33.40957912 38.98077393 36.79403687 C45.38432149 43.20380283 51.78275334 49.6186504 58.17937016 56.03533208 C65.46195784 63.34026753 72.75021929 70.63953083 80.03896666 77.93831944 C95.03230674 92.95256969 110.01849505 107.97394102 125 123 C124.67 123.99 124.34 124.98 124 126 C111.41357835 130.77369625 95.66220656 134.60609432 82.85107422 129.01757812 C73.080451 123.99121629 65.81588407 115.6776911 58.16015625 107.95703125 C56.46379967 106.26472358 54.76655388 104.57330684 53.06846619 102.88273621 C49.52629237 99.34937172 45.99510454 95.80547801 42.47143555 92.25366211 C37.97063918 87.71865774 33.44340045 83.21116434 28.90757084 78.71123219 C25.40238143 75.22779689 21.91169756 71.73010651 18.42513847 68.22803307 C16.76187945 66.56079304 15.09421125 64.89793888 13.4219532 63.23972511 C11.0816024 60.91473644 8.7615421 58.57115264 6.44555664 56.22192383 C5.42078972 55.21537498 5.42078972 55.21537498 4.37532043 54.18849182 C-1.78745399 47.86214011 -6.55911923 39.63390526 -7.140625 30.63671875 C-6.73784995 23.08468662 -5.41348058 5.41348058 0 0 Z " fill="#FB675B" transform="translate(109,278)"/>
<path d="M0 0 C-2.88377832 3.37950636 -5.77200219 6.75325468 -8.71875 10.078125 C-36.00085475 41.05320579 -57.30942754 77.4868776 -72 116 C-76.62 116 -81.24 116 -86 116 C-85.28309212 111.69855271 -84.81337263 109.11373272 -83.14453125 105.34765625 C-82.58560181 104.07015503 -82.58560181 104.07015503 -82.01538086 102.7668457 C-81.61843018 101.87441162 -81.22147949 100.98197754 -80.8125 100.0625 C-79.99654773 98.18265956 -79.18144819 96.30244877 -78.3671875 94.421875 C-77.24764874 91.85188159 -76.12562762 89.28329938 -74.98925781 86.72070312 C-69.6181184 74.56847396 -69.6181184 74.56847396 -70.703125 61.63671875 C-73.83454274 53.7418308 -78.41257314 48.2447893 -86.16796875 44.7265625 C-92.55943351 42.19178117 -99.00272402 41.9765255 -105.5 44.375 C-115.46044891 48.79127559 -125.53280462 54.13728255 -134 61 C-134.66 61 -135.32 61 -136 61 C-126.7572095 39.41710091 -91.13820397 21.89811297 -70.75341797 13.40063477 C-47.81996635 4.2330896 -24.67075258 -0.54354167 0 0 Z " fill="#F05543" transform="translate(191,134)"/>
<path d="M0 0 C1.04864678 27.45901017 -5.42331625 54.19612981 -17 79 C-17.28987793 79.63728027 -17.57975586 80.27456055 -17.87841797 80.93115234 C-27.96162761 102.99884234 -43.62507631 121.32840905 -61 138 C-61 134.20323192 -60.0352547 133.61302725 -57.5625 130.8125 C-48.29700571 119.56860835 -40.15274297 105.91453342 -40.58984375 90.99609375 C-41.4940295 84.39123214 -44.48439803 79.05567156 -49.375 74.5625 C-56.91047673 68.87868956 -63.65252138 67.85299604 -73 69 C-78.67945442 70.62702535 -83.99006361 73.28776247 -89.3125 75.8125 C-91.42320671 76.78508767 -93.5369653 77.75078547 -95.65116882 78.71574402 C-96.95297624 79.31294578 -98.25222353 79.91577748 -99.548172 80.52558899 C-111.23923198 86 -111.23923198 86 -116 86 C-116 81.38 -116 76.76 -116 72 C-114.41316406 71.35675781 -112.82632812 70.71351563 -111.19140625 70.05078125 C-74.88843531 55.13758239 -41.5552271 35.93965167 -12 10 C-11.18660156 9.29746094 -10.37320313 8.59492188 -9.53515625 7.87109375 C-5.85083482 4.69084725 -5.85083482 4.69084725 -2.3515625 1.3125 C-1 0 -1 0 0 0 Z " fill="#F05543" transform="translate(378,321)"/>
<path d="M0 0 C4.68310547 -0.21972656 4.68310547 -0.21972656 7.53515625 1.7578125 C14.73103158 8.49768955 20.44903179 14.111673 21.2746582 24.43383789 C21.28758911 26.30930298 21.28758911 26.30930298 21.30078125 28.22265625 C21.3091803 29.25675125 21.3091803 29.25675125 21.31774902 30.31173706 C21.32968738 32.56221175 21.32334688 34.81202531 21.3125 37.0625 C21.31067719 37.8387674 21.30885437 38.61503479 21.30697632 39.41482544 C21.18407707 70.66526184 20.03271478 112.97629735 5 141 C0.14141748 137.04533981 -4.46277833 132.8168196 -9 128.5 C-9.60030029 127.95448486 -10.20060059 127.40896973 -10.8190918 126.84692383 C-12.41705428 125.2990935 -13.78485684 123.86379405 -15 122 C-15.0234375 119.125 -15.0234375 119.125 -14 116 C-13.63411955 114.65730701 -13.27244438 113.31346387 -12.9140625 111.96875 C-12.48575745 110.47876858 -12.05600545 108.98920252 -11.625 107.5 C-9.4330034 99.71954761 -7.46601119 91.95419932 -6 84 C-5.84144531 83.15179688 -5.68289063 82.30359375 -5.51953125 81.4296875 C-0.56546233 54.38717593 0.37932178 27.41329346 0 0 Z " fill="#E24D43" transform="translate(467,27)"/>
<path d="M0 0 C2.09920233 10.76982065 -1.31757835 19.11915534 -7 28 C-14.24690152 37.79347072 -25.96955215 44.80040319 -38 47 C-52.65893426 47.89678186 -65.30978238 45.40685215 -76.77734375 35.6328125 C-81.37218983 31.19315211 -85.50856268 26.93199363 -88 21 C-87.58203125 18.8046875 -87.58203125 18.8046875 -87 17 C-86.20343994 16.82984375 -85.40687988 16.6596875 -84.58618164 16.484375 C-68.9029143 13.12263709 -53.26530587 9.63494408 -37.6875 5.8125 C-18.55374397 1.13494504 -18.55374397 1.13494504 -10.625 -0.625 C-9.49324341 -0.89026489 -9.49324341 -0.89026489 -8.33862305 -1.16088867 C-3.35017451 -2.23344967 -3.35017451 -2.23344967 0 0 Z " fill="#BDBDFA" transform="translate(370,188)"/>
<path d="M0 0 C15.36752289 -0.50848421 28.3572225 3.7760556 40 14 C41.26457031 15.10214844 41.26457031 15.10214844 42.5546875 16.2265625 C44.71884052 18.13452295 46.86636989 20.05804351 49 22 C45.2991619 30.34967413 37.25653246 34.32301011 29.21484375 37.77734375 C22.05984663 40.49850304 15.28503973 41.19118163 7.6875 41.375 C7.00518311 41.40126465 6.32286621 41.4275293 5.61987305 41.45458984 C2.02253002 41.46610418 0.12375364 41.08051442 -2.91796875 39.1015625 C-6.96027643 35.02133448 -6.34287209 30.5218444 -6.39819336 25.10327148 C-6.26805747 16.40418783 -3.89540712 7.79081424 0 0 Z " fill="#F7F262" transform="translate(107,370)"/>
<path d="M0 0 C2.96728289 1.79895674 5.42350428 3.84700857 7 7 C7.50542941 12.12754475 6.27870134 14.86728671 3.6875 19.25 C-0.22706574 26.1906369 -3.45967933 33.35137775 -6.5625 40.6875 C-7.03365234 41.80116943 -7.50480469 42.91483887 -7.99023438 44.06225586 C-11.22518765 51.84114543 -14.14144855 59.69189359 -16.54321289 67.77026367 C-18.27851239 73.21881247 -20.20158977 75.81150025 -25 79 C-28.65214239 79.59626815 -30.41759598 79.27796555 -33.75 77.6875 C-36.25396212 75.80952841 -37.81026415 74.2425041 -38.29638672 71.05908203 C-38.3188739 65.16347098 -37.18323451 60.37541559 -35.125 54.875 C-34.6606958 53.59725708 -34.6606958 53.59725708 -34.18701172 52.29370117 C-29.00029657 38.30325286 -23.02832746 24.57440989 -16.1875 11.3125 C-15.83896973 10.62389893 -15.49043945 9.93529785 -15.13134766 9.22583008 C-11.54677044 2.49941614 -7.89655541 -1.24682454 0 0 Z " fill="#F3F3FF" transform="translate(177,199)"/>
<path d="M0 0 C3.15918037 2.60655407 4.1295805 5.53558083 5.5625 9.3125 C13.60237622 29.21989283 29.42741022 43.30446807 48.85546875 51.78515625 C68.88843872 59.52460179 92.29857317 59.72386434 112.1484375 51.3046875 C134.94477771 40.93192095 148.49117996 23.71066805 158 1 C158.33 1 158.66 1 159 1 C158.92281212 17.74976907 148.60597357 32.63020048 137.3125 44.25 C122.86533261 58.47443926 103.17908528 67.23547928 82.81811523 67.46875 C81.78501221 67.4584375 80.75190918 67.448125 79.6875 67.4375 C78.59445557 67.42847656 77.50141113 67.41945313 76.37524414 67.41015625 C54.19102563 66.93706814 33.53759189 56.55654712 18.1953125 40.609375 C9.05058474 29.73984093 -0.71393779 14.63572461 0 0 Z " fill="#302F2F" transform="translate(245,202)"/>
<path d="M0 0 C1.55566406 1.21508789 1.55566406 1.21508789 3.015625 2.72265625 C3.54414062 3.26083984 4.07265625 3.79902344 4.6171875 4.35351562 C5.15601563 4.91748047 5.69484375 5.48144531 6.25 6.0625 C6.80429688 6.63033203 7.35859375 7.19816406 7.9296875 7.78320312 C9.29334214 9.18212469 10.64760417 10.59019114 12 12 C9.55745282 14.53441289 7.14647112 16.69467999 4.25 18.6875 C-0.68474176 22.31924815 -6.71701556 27.2885093 -8.765625 33.21484375 C-10 35 -10 35 -13.2734375 35.65234375 C-14.63973958 35.75937271 -16.00707859 35.85366931 -17.375 35.9375 C-32.95550265 37.39888227 -44.44410755 44.79929059 -55 56 C-55.99661211 57.00337645 -56.99538824 58.00463313 -58 59 C-57.51363215 53.10954494 -55.75980648 48.84599078 -52.9375 43.6875 C-52.53192871 42.93839355 -52.12635742 42.18928711 -51.70849609 41.41748047 C-42.23311834 24.32630943 -28.05867129 11.87472525 -11.125 2.5 C-10.48208008 2.13688721 -9.83916016 1.77377441 -9.17675781 1.3996582 C-5.66234465 -0.48095031 -3.76355096 -1.44020529 0 0 Z " fill="#E5A320" transform="translate(118,335)"/>
<path d="M0 0 C11.36852791 7.43956466 19.06717239 16.67032345 23.09765625 29.8515625 C24.48185239 37.06264418 25.91052047 47.85944056 21.75 54.25 C21.73582031 53.52296875 21.72164063 52.7959375 21.70703125 52.046875 C21.19221248 41.19393878 17.97366092 32.24742868 10.984375 23.87109375 C9.75 22.25 9.75 22.25 8.75 19.25 C6.91391741 18.1908771 6.91391741 18.1908771 4.75 17.25 C3.32249521 16.2867026 1.90628899 15.30651362 0.5 14.3125 C-9.90325834 7.30866434 -21.28853845 6.00447295 -33.56640625 7.7109375 C-41.10531413 9.22405951 -47.01585491 11.77024264 -53.25 16.25 C-54.20326172 16.91128906 -54.20326172 16.91128906 -55.17578125 17.5859375 C-62.14537818 22.93290099 -68.19258773 31.97535547 -69.6640625 40.70703125 C-69.73367188 41.48433594 -69.80328125 42.26164062 -69.875 43.0625 C-69.94976562 43.85269531 -70.02453125 44.64289063 -70.1015625 45.45703125 C-70.15054687 46.04871094 -70.19953125 46.64039063 -70.25 47.25 C-70.58 47.25 -70.91 47.25 -71.25 47.25 C-72.16634499 33.12301468 -68.37862198 20.65639385 -59.1796875 9.80859375 C-43.88062815 -6.37002825 -19.76841334 -11.27040638 0 0 Z " fill="#6060EB" transform="translate(348.25,145.75)"/>
<path d="M0 0 C0.86366822 1.78710586 1.71568594 3.5798465 2.5625 5.375 C3.03816406 6.37273437 3.51382813 7.37046875 4.00390625 8.3984375 C4.33261719 9.25695312 4.66132813 10.11546875 5 11 C4.67 11.66 4.34 12.32 4 13 C0.97970796 13.78914241 -2.0043767 14.45040044 -5.0625 15.0625 C-7.15665069 15.49938581 -9.25036677 15.93835774 -11.34375 16.37890625 C-12.53742188 16.62914551 -13.73109375 16.87938477 -14.9609375 17.13720703 C-23.01231104 18.8440761 -31.03474491 20.6860491 -39.0625 22.5 C-40.81143036 22.89466447 -42.56037236 23.28927737 -44.30932617 23.68383789 C-46.86124546 24.25963698 -49.41312798 24.83559632 -51.96488953 25.41209412 C-56.77366776 26.49846192 -61.58352882 27.57977553 -66.39453125 28.65625 C-68.38803366 29.10410958 -70.38152458 29.5520203 -72.375 30 C-73.69189819 30.29293945 -73.69189819 30.29293945 -75.03540039 30.59179688 C-79.12699694 31.46977775 -79.12699694 31.46977775 -83 33 C-83.50692692 31.4188708 -84.00526443 29.83498617 -84.5 28.25 C-84.91765625 26.92742187 -84.91765625 26.92742187 -85.34375 25.578125 C-86 23 -86 23 -86 19 C-84.92443848 18.75878418 -83.84887695 18.51756836 -82.74072266 18.26904297 C-57.16898654 12.53929593 -57.16898654 12.53929593 -31.625 6.6875 C-24.25449848 4.97971507 -16.88265649 3.27957922 -9.5 1.625 C-8.3855249 1.37302856 -8.3855249 1.37302856 -7.24853516 1.1159668 C-2.23602951 0 -2.23602951 0 0 0 Z " fill="#A2A2F8" transform="translate(364,174)"/>
<path d="M0 0 C2.31176758 1.74414062 2.31176758 1.74414062 4.64453125 4.15625 C5.48564453 5.01347656 6.32675781 5.87070312 7.19335938 6.75390625 C8.05767578 7.66011719 8.92199219 8.56632812 9.8125 9.5 C10.69615234 10.40621094 11.57980469 11.31242187 12.49023438 12.24609375 C14.67178528 14.48660549 16.8408423 16.7379348 19 19 C18.505 20.485 18.505 20.485 18 22 C5.16314147 26.86868032 -10.81461234 30.48016949 -24 25.0625 C-32.74215353 20.04430852 -40.69059718 11.79343912 -47 4 C-47 3.34 -47 2.68 -47 2 C-46.03513672 2.32484375 -46.03513672 2.32484375 -45.05078125 2.65625 C-33.00357689 6.36837003 -23.03666628 5.4618347 -11.17944336 1.77929688 C-10.44991455 1.55306641 -9.72038574 1.32683594 -8.96875 1.09375 C-8.32357422 0.88427734 -7.67839844 0.67480469 -7.01367188 0.45898438 C-4.48402108 -0.11760916 -2.58987266 -0.33427339 0 0 Z " fill="#E24E44" transform="translate(215,382)"/>
<path d="M0 0 C0.495 0.99 0.495 0.99 1 2 C-9.82956468 4.99943052 -20.70827758 7.55478316 -31.6875 9.9375 C-42.69006039 12.33981009 -53.66777502 14.77369247 -64.54174805 17.71655273 C-69.79360776 19.10319612 -69.79360776 19.10319612 -72 18 C-64.67256263 5.18287483 -55.74643707 -3.28118887 -41.43359375 -7.8125 C-26.93097766 -11.16462956 -12.01268149 -9.04099089 0 0 Z " fill="#A1A1F8" transform="translate(352,161)"/>
<path d="M0 0 C2.95265112 1.32994383 5.02350216 2.77779316 7.29980469 5.07275391 C7.92014587 5.69324615 8.54048706 6.3137384 9.17962646 6.95303345 C9.83706848 7.62079803 10.4945105 8.28856262 11.171875 8.9765625 C12.1955014 10.00443375 12.1955014 10.00443375 13.23980713 11.05307007 C15.41461598 13.23905845 17.58236072 15.43190429 19.75 17.625 C21.2247999 19.10983255 22.70005506 20.59421306 24.17578125 22.078125 C27.78915448 25.7135291 31.39620853 29.35509824 35 33 C32.8984375 39.5859375 32.8984375 39.5859375 30.375 42.375 C29.59125 43.24125 28.8075 44.1075 28 45 C26.63875 43.7934375 26.63875 43.7934375 25.25 42.5625 C10.80027074 30.31353111 -2.09521913 23.42399648 -21 22 C-17.58405368 12.00124047 -8.63259215 5.44267814 0 0 Z " fill="#F6E739" transform="translate(129,348)"/>
<path d="M0 0 C-8.38596749 13.22735078 -17.95620171 20.76742055 -32.9140625 25.62109375 C-46.84280712 28.15122152 -59.32047906 24.60970602 -71 17 C-71.33 16.34 -71.66 15.68 -72 15 C-52.81749491 10.26741686 -33.58827079 5.84392077 -14.26757812 1.71240234 C-11.40342631 1.08795562 -8.5544291 0.41816392 -5.703125 -0.26171875 C-2 -1 -2 -1 0 0 Z " fill="#A0A0F6" transform="translate(367,209)"/>
<path d="M0 0 C2.69990662 1.79993774 4.5418865 3.083773 6 6 C6.5680713 10.04750798 6.8096003 12.5863719 4.75390625 16.17578125 C2.92842657 18.54932642 1.00521858 20.7760303 -1 23 C-1.79148438 23.91007812 -2.58296875 24.82015625 -3.3984375 25.7578125 C-10.50224113 33.82718167 -10.50224113 33.82718167 -15.25 34.375 C-20.19272958 33.88072704 -21.53828301 32.46171699 -25 29 C-26.43304064 26.13391871 -26.30644155 24.18699217 -26 21 C-23.31029485 16.49005253 -20.10259029 12.6544962 -16.5625 8.8125 C-16.09779297 8.29236328 -15.63308594 7.77222656 -15.15429688 7.23632812 C-10.67723033 2.34714666 -6.86192945 -1.00069804 0 0 Z " fill="#F3F3FF" transform="translate(216,146)"/>
<path d="M0 0 C0.66 0.66 1.32 1.32 2 2 C1.625 4.625 1.625 4.625 1 7 C0.36835938 6.9278125 -0.26328125 6.855625 -0.9140625 6.78125 C-20.18504641 4.78195484 -37.49881439 5.99920959 -54 17 C-56.6875 16.625 -56.6875 16.625 -59 16 C-58.67021073 13.12889344 -58.45873558 11.46318933 -56.390625 9.375 C-39.97044091 -1.17227153 -19.07921337 -5.92113519 0 0 Z " fill="#7B7A7A" transform="translate(343,121)"/>
<path d="M0 0 C2.35997339 1.97467162 4.68880166 3.96935175 7 6 C7.67933594 6.5878125 8.35867187 7.175625 9.05859375 7.78125 C13.94330766 12.26299958 13.94330766 12.26299958 14.1875 15.4375 C12.5354629 19.00242217 10.8497283 22.53283485 9 26 C4.67495164 24.34136495 1.90581175 21.128959 -1.25 17.875 C-1.80429688 17.31167969 -2.35859375 16.74835938 -2.9296875 16.16796875 C-4.29104485 14.78313972 -5.64614859 13.39216796 -7 12 C-5.61735163 9.13132769 -4.07851447 6.43975968 -2.375 3.75 C-1.92898437 3.04359375 -1.48296875 2.3371875 -1.0234375 1.609375 C-0.68570313 1.07828125 -0.34796875 0.5471875 0 0 Z " fill="#E5A320" transform="translate(164,382)"/>
<path d="M0 0 C3.53366794 -0.45842179 4.7506425 -0.18346888 7.67578125 1.96875 C8.98095703 3.22171875 8.98095703 3.22171875 10.3125 4.5 C11.19550781 5.3353125 12.07851563 6.170625 12.98828125 7.03125 C13.65214844 7.6809375 14.31601562 8.330625 15 9 C14.67 10.32 14.34 11.64 14 13 C12.359375 13.77734375 12.359375 13.77734375 10 14 C7.203125 12.12890625 7.203125 12.12890625 4.25 9.5625 C2.77273438 8.29599609 2.77273438 8.29599609 1.265625 7.00390625 C0.51796875 6.34261719 -0.2296875 5.68132812 -1 5 C-0.67 3.35 -0.34 1.7 0 0 Z " fill="#7B7A7A" transform="translate(359,131)"/>
</svg>
